<?xml version="1.0" standalone="no"?>
<!DOCTYPE svg PUBLIC "-//W3C//DTD SVG 20010904//EN"
 "http://www.w3.org/TR/2001/REC-SVG-20010904/DTD/svg10.dtd">
<svg version="1.0" xmlns="http://www.w3.org/2000/svg"
 width="500.000000pt" height="500.000000pt" viewBox="0 0 500.000000 500.000000"
 preserveAspectRatio="xMidYMid meet">

<g transform="translate(0.000000,500.000000) scale(0.100000,-0.100000)"
fill="#000000" stroke="none">
<path d="M0 2500 l0 -2500 2500 0 2500 0 0 2500 0 2500 -2500 0 -2500 0 0
-2500z m2570 290 l0 -1040 -50 0 -50 0 0 1040 0 1040 50 0 50 0 0 -1040z
m-1118 933 c9 -10 204 -297 434 -638 l419 -620 5 635 c3 349 6 636 8 638 1 1
20 2 42 2 l40 0 0 -995 0 -995 -24 0 c-20 0 -88 96 -452 635 l-429 634 -3
-621 c-1 -439 -5 -625 -13 -635 -15 -18 -369 -19 -387 -1 -17 17 -17 1949 0
1966 8 8 62 12 178 12 146 0 169 -2 182 -17z m1841 2 c324 -56 553 -241 663
-533 57 -152 69 -233 69 -457 0 -187 -2 -207 -29 -310 -78 -304 -237 -498
-494 -603 -153 -62 -229 -72 -559 -72 l-293 0 0 995 0 995 279 0 c201 0 302
-4 364 -15z m-2128 -2428 l80 -142 3 143 3 142 39 0 40 0 0 -206 0 -205 -46 3
-47 3 -74 130 c-41 72 -79 134 -84 140 -5 5 -9 -46 -9 -133 l0 -142 -35 0 -35
0 0 205 0 205 43 0 42 0 80 -143z m665 88 c0 -54 0 -55 30 -55 27 0 30 -3 30
-30 0 -27 -3 -30 -30 -30 l-30 0 0 -74 c0 -91 5 -106 36 -106 20 0 24 -5 24
-30 0 -29 -2 -30 -45 -30 -73 0 -85 19 -85 140 0 93 -1 100 -20 100 -16 0 -20
7 -20 30 0 23 4 30 20 30 18 0 20 7 20 55 l0 55 35 0 35 0 0 -55z m930 24 c60
-33 90 -92 90 -173 -1 -145 -75 -206 -252 -206 l-78 0 0 206 0 207 98 -5 c80
-4 107 -9 142 -29z m874 8 c9 -15 7 -22 -11 -37 -27 -21 -60 -16 -68 12 -14
43 54 65 79 25z m-2014 -106 c33 -24 58 -68 62 -111 l3 -35 -112 -3 c-62 -1
-113 -6 -113 -11 0 -5 9 -20 21 -35 26 -33 79 -36 109 -6 12 12 33 20 55 20
34 0 35 -1 24 -22 -47 -92 -166 -113 -240 -42 -80 77 -47 233 56 264 41 12
104 4 135 -19z m1500 5 c34 -16 70 -73 70 -112 l0 -34 -110 0 c-120 0 -128 -4
-89 -54 26 -33 79 -36 109 -6 13 13 33 20 56 20 l36 0 -19 -32 c-37 -64 -132
-90 -201 -54 -86 44 -103 170 -34 247 42 47 114 57 182 25z m282 14 c37 -11
88 -60 88 -86 0 -24 -50 -16 -76 12 -33 34 -89 32 -89 -5 0 -21 8 -26 70 -43
77 -20 105 -44 105 -89 0 -93 -162 -128 -232 -50 -37 41 -36 61 2 61 18 0 39
-10 54 -25 28 -28 63 -32 92 -11 30 23 7 49 -56 63 -70 15 -104 41 -108 82 -4
42 20 78 61 90 43 12 46 12 89 1z m481 -18 c15 -14 17 -13 17 1 0 13 9 17 35
17 l35 0 0 -170 0 -170 -29 -32 c-25 -28 -35 -32 -93 -36 -86 -5 -148 27 -148
77 0 19 61 12 87 -9 51 -40 113 -14 113 46 l0 35 -26 -20 c-49 -39 -127 -19
-164 42 -39 63 -19 185 34 220 43 29 105 28 139 -1z m387 -8 c24 -23 25 -31
28 -149 l4 -125 -36 0 -36 0 0 105 c0 92 -3 108 -20 125 -25 25 -41 25 -71 1
-22 -18 -24 -28 -27 -125 l-4 -106 -34 0 -34 0 0 150 0 150 35 0 c23 0 35 -5
35 -14 0 -11 8 -10 38 5 45 23 86 18 122 -17z m-640 -124 l0 -150 -35 0 -35 0
0 150 0 150 35 0 35 0 0 -150z"/>
<path d="M2710 2744 l0 -686 228 4 c215 4 231 6 305 31 43 15 90 35 105 44
186 117 273 309 273 602 0 247 -59 420 -184 539 -126 120 -239 152 -538 152
l-189 0 0 -686z"/>
<path d="M2600 1235 l0 -137 57 4 c47 4 61 10 84 35 34 38 44 96 27 147 -17
51 -54 78 -117 84 l-51 5 0 -138z"/>
<path d="M1482 1253 l-27 -28 74 -3 c40 -2 76 0 80 3 11 11 -49 55 -75 55 -14
0 -37 -12 -52 -27z"/>
<path d="M2992 1253 l-27 -28 74 -3 c40 -2 76 0 80 3 11 11 -49 55 -75 55 -14
0 -37 -12 -52 -27z"/>
<path d="M3794 1262 c-40 -27 -46 -111 -9 -147 27 -28 42 -30 78 -14 75 34 54
169 -26 169 -18 0 -37 -4 -43 -8z"/>
</g>
</svg>
